%TF.GenerationSoftware,KiCad,Pcbnew,7.0.8*%
%TF.CreationDate,2024-08-15T13:25:32-04:00*%
%TF.ProjectId,R503toFeather,52353033-746f-4466-9561-746865722e6b,rev?*%
%TF.SameCoordinates,Original*%
%TF.FileFunction,Legend,Top*%
%TF.FilePolarity,Positive*%
%FSLAX46Y46*%
G04 Gerber Fmt 4.6, Leading zero omitted, Abs format (unit mm)*
G04 Created by KiCad (PCBNEW 7.0.8) date 2024-08-15 13:25:32*
%MOMM*%
%LPD*%
G01*
G04 APERTURE LIST*
%ADD10C,0.150000*%
%ADD11C,0.750000*%
%ADD12C,0.120000*%
G04 APERTURE END LIST*
D10*
X31130295Y-54590839D02*
X26130295Y-54590839D01*
X26130295Y-54590839D02*
X29701723Y-52924173D01*
X29701723Y-52924173D02*
X26130295Y-51257506D01*
X26130295Y-51257506D02*
X31130295Y-51257506D01*
X31130295Y-48876553D02*
X27796961Y-48876553D01*
X26130295Y-48876553D02*
X26368390Y-49114649D01*
X26368390Y-49114649D02*
X26606485Y-48876553D01*
X26606485Y-48876553D02*
X26368390Y-48638458D01*
X26368390Y-48638458D02*
X26130295Y-48876553D01*
X26130295Y-48876553D02*
X26606485Y-48876553D01*
X31130295Y-46495601D02*
X27796961Y-46495601D01*
X28273152Y-46495601D02*
X28035057Y-46257506D01*
X28035057Y-46257506D02*
X27796961Y-45781316D01*
X27796961Y-45781316D02*
X27796961Y-45067030D01*
X27796961Y-45067030D02*
X28035057Y-44590839D01*
X28035057Y-44590839D02*
X28511247Y-44352744D01*
X28511247Y-44352744D02*
X31130295Y-44352744D01*
X28511247Y-44352744D02*
X28035057Y-44114649D01*
X28035057Y-44114649D02*
X27796961Y-43638458D01*
X27796961Y-43638458D02*
X27796961Y-42924173D01*
X27796961Y-42924173D02*
X28035057Y-42447982D01*
X28035057Y-42447982D02*
X28511247Y-42209887D01*
X28511247Y-42209887D02*
X31130295Y-42209887D01*
X31130295Y-39114649D02*
X30892200Y-39590839D01*
X30892200Y-39590839D02*
X30654104Y-39828934D01*
X30654104Y-39828934D02*
X30177914Y-40067030D01*
X30177914Y-40067030D02*
X28749342Y-40067030D01*
X28749342Y-40067030D02*
X28273152Y-39828934D01*
X28273152Y-39828934D02*
X28035057Y-39590839D01*
X28035057Y-39590839D02*
X27796961Y-39114649D01*
X27796961Y-39114649D02*
X27796961Y-38400363D01*
X27796961Y-38400363D02*
X28035057Y-37924172D01*
X28035057Y-37924172D02*
X28273152Y-37686077D01*
X28273152Y-37686077D02*
X28749342Y-37447982D01*
X28749342Y-37447982D02*
X30177914Y-37447982D01*
X30177914Y-37447982D02*
X30654104Y-37686077D01*
X30654104Y-37686077D02*
X30892200Y-37924172D01*
X30892200Y-37924172D02*
X31130295Y-38400363D01*
X31130295Y-38400363D02*
X31130295Y-39114649D01*
X28511247Y-33638458D02*
X28511247Y-35305124D01*
X31130295Y-35305124D02*
X26130295Y-35305124D01*
X26130295Y-35305124D02*
X26130295Y-32924172D01*
X31130295Y-31019410D02*
X26130295Y-31019410D01*
X26130295Y-31019410D02*
X26130295Y-29114648D01*
X26130295Y-29114648D02*
X26368390Y-28638458D01*
X26368390Y-28638458D02*
X26606485Y-28400363D01*
X26606485Y-28400363D02*
X27082676Y-28162267D01*
X27082676Y-28162267D02*
X27796961Y-28162267D01*
X27796961Y-28162267D02*
X28273152Y-28400363D01*
X28273152Y-28400363D02*
X28511247Y-28638458D01*
X28511247Y-28638458D02*
X28749342Y-29114648D01*
X28749342Y-29114648D02*
X28749342Y-31019410D01*
X30892200Y-26257506D02*
X31130295Y-25543220D01*
X31130295Y-25543220D02*
X31130295Y-24352744D01*
X31130295Y-24352744D02*
X30892200Y-23876553D01*
X30892200Y-23876553D02*
X30654104Y-23638458D01*
X30654104Y-23638458D02*
X30177914Y-23400363D01*
X30177914Y-23400363D02*
X29701723Y-23400363D01*
X29701723Y-23400363D02*
X29225533Y-23638458D01*
X29225533Y-23638458D02*
X28987438Y-23876553D01*
X28987438Y-23876553D02*
X28749342Y-24352744D01*
X28749342Y-24352744D02*
X28511247Y-25305125D01*
X28511247Y-25305125D02*
X28273152Y-25781315D01*
X28273152Y-25781315D02*
X28035057Y-26019410D01*
X28035057Y-26019410D02*
X27558866Y-26257506D01*
X27558866Y-26257506D02*
X27082676Y-26257506D01*
X27082676Y-26257506D02*
X26606485Y-26019410D01*
X26606485Y-26019410D02*
X26368390Y-25781315D01*
X26368390Y-25781315D02*
X26130295Y-25305125D01*
X26130295Y-25305125D02*
X26130295Y-24114648D01*
X26130295Y-24114648D02*
X26368390Y-23400363D01*
D11*
X24749095Y-55466102D02*
X19749095Y-55466102D01*
X19749095Y-55466102D02*
X23320523Y-53799436D01*
X23320523Y-53799436D02*
X19749095Y-52132769D01*
X19749095Y-52132769D02*
X24749095Y-52132769D01*
X24749095Y-49751816D02*
X21415761Y-49751816D01*
X19749095Y-49751816D02*
X19987190Y-49989912D01*
X19987190Y-49989912D02*
X20225285Y-49751816D01*
X20225285Y-49751816D02*
X19987190Y-49513721D01*
X19987190Y-49513721D02*
X19749095Y-49751816D01*
X19749095Y-49751816D02*
X20225285Y-49751816D01*
X24749095Y-47370864D02*
X21415761Y-47370864D01*
X21891952Y-47370864D02*
X21653857Y-47132769D01*
X21653857Y-47132769D02*
X21415761Y-46656579D01*
X21415761Y-46656579D02*
X21415761Y-45942293D01*
X21415761Y-45942293D02*
X21653857Y-45466102D01*
X21653857Y-45466102D02*
X22130047Y-45228007D01*
X22130047Y-45228007D02*
X24749095Y-45228007D01*
X22130047Y-45228007D02*
X21653857Y-44989912D01*
X21653857Y-44989912D02*
X21415761Y-44513721D01*
X21415761Y-44513721D02*
X21415761Y-43799436D01*
X21415761Y-43799436D02*
X21653857Y-43323245D01*
X21653857Y-43323245D02*
X22130047Y-43085150D01*
X22130047Y-43085150D02*
X24749095Y-43085150D01*
X24749095Y-39989912D02*
X24511000Y-40466102D01*
X24511000Y-40466102D02*
X24272904Y-40704197D01*
X24272904Y-40704197D02*
X23796714Y-40942293D01*
X23796714Y-40942293D02*
X22368142Y-40942293D01*
X22368142Y-40942293D02*
X21891952Y-40704197D01*
X21891952Y-40704197D02*
X21653857Y-40466102D01*
X21653857Y-40466102D02*
X21415761Y-39989912D01*
X21415761Y-39989912D02*
X21415761Y-39275626D01*
X21415761Y-39275626D02*
X21653857Y-38799435D01*
X21653857Y-38799435D02*
X21891952Y-38561340D01*
X21891952Y-38561340D02*
X22368142Y-38323245D01*
X22368142Y-38323245D02*
X23796714Y-38323245D01*
X23796714Y-38323245D02*
X24272904Y-38561340D01*
X24272904Y-38561340D02*
X24511000Y-38799435D01*
X24511000Y-38799435D02*
X24749095Y-39275626D01*
X24749095Y-39275626D02*
X24749095Y-39989912D01*
X24272904Y-33323244D02*
X24511000Y-33561340D01*
X24511000Y-33561340D02*
X24749095Y-34275625D01*
X24749095Y-34275625D02*
X24749095Y-34751816D01*
X24749095Y-34751816D02*
X24511000Y-35466102D01*
X24511000Y-35466102D02*
X24034809Y-35942292D01*
X24034809Y-35942292D02*
X23558619Y-36180387D01*
X23558619Y-36180387D02*
X22606238Y-36418483D01*
X22606238Y-36418483D02*
X21891952Y-36418483D01*
X21891952Y-36418483D02*
X20939571Y-36180387D01*
X20939571Y-36180387D02*
X20463380Y-35942292D01*
X20463380Y-35942292D02*
X19987190Y-35466102D01*
X19987190Y-35466102D02*
X19749095Y-34751816D01*
X19749095Y-34751816D02*
X19749095Y-34275625D01*
X19749095Y-34275625D02*
X19987190Y-33561340D01*
X19987190Y-33561340D02*
X20225285Y-33323244D01*
X23320523Y-31418483D02*
X23320523Y-29037530D01*
X24749095Y-31894673D02*
X19749095Y-30228006D01*
X19749095Y-30228006D02*
X24749095Y-28561340D01*
X24749095Y-26894673D02*
X19749095Y-26894673D01*
X19749095Y-26894673D02*
X19749095Y-25704197D01*
X19749095Y-25704197D02*
X19987190Y-24989911D01*
X19987190Y-24989911D02*
X20463380Y-24513721D01*
X20463380Y-24513721D02*
X20939571Y-24275626D01*
X20939571Y-24275626D02*
X21891952Y-24037530D01*
X21891952Y-24037530D02*
X22606238Y-24037530D01*
X22606238Y-24037530D02*
X23558619Y-24275626D01*
X23558619Y-24275626D02*
X24034809Y-24513721D01*
X24034809Y-24513721D02*
X24511000Y-24989911D01*
X24511000Y-24989911D02*
X24749095Y-25704197D01*
X24749095Y-25704197D02*
X24749095Y-26894673D01*
D10*
X24584819Y-56046666D02*
X24108628Y-56379999D01*
X24584819Y-56618094D02*
X23584819Y-56618094D01*
X23584819Y-56618094D02*
X23584819Y-56237142D01*
X23584819Y-56237142D02*
X23632438Y-56141904D01*
X23632438Y-56141904D02*
X23680057Y-56094285D01*
X23680057Y-56094285D02*
X23775295Y-56046666D01*
X23775295Y-56046666D02*
X23918152Y-56046666D01*
X23918152Y-56046666D02*
X24013390Y-56094285D01*
X24013390Y-56094285D02*
X24061009Y-56141904D01*
X24061009Y-56141904D02*
X24108628Y-56237142D01*
X24108628Y-56237142D02*
X24108628Y-56618094D01*
X23680057Y-55665713D02*
X23632438Y-55618094D01*
X23632438Y-55618094D02*
X23584819Y-55522856D01*
X23584819Y-55522856D02*
X23584819Y-55284761D01*
X23584819Y-55284761D02*
X23632438Y-55189523D01*
X23632438Y-55189523D02*
X23680057Y-55141904D01*
X23680057Y-55141904D02*
X23775295Y-55094285D01*
X23775295Y-55094285D02*
X23870533Y-55094285D01*
X23870533Y-55094285D02*
X24013390Y-55141904D01*
X24013390Y-55141904D02*
X24584819Y-55713332D01*
X24584819Y-55713332D02*
X24584819Y-55094285D01*
X27124819Y-56046666D02*
X26648628Y-56379999D01*
X27124819Y-56618094D02*
X26124819Y-56618094D01*
X26124819Y-56618094D02*
X26124819Y-56237142D01*
X26124819Y-56237142D02*
X26172438Y-56141904D01*
X26172438Y-56141904D02*
X26220057Y-56094285D01*
X26220057Y-56094285D02*
X26315295Y-56046666D01*
X26315295Y-56046666D02*
X26458152Y-56046666D01*
X26458152Y-56046666D02*
X26553390Y-56094285D01*
X26553390Y-56094285D02*
X26601009Y-56141904D01*
X26601009Y-56141904D02*
X26648628Y-56237142D01*
X26648628Y-56237142D02*
X26648628Y-56618094D01*
X27124819Y-55094285D02*
X27124819Y-55665713D01*
X27124819Y-55379999D02*
X26124819Y-55379999D01*
X26124819Y-55379999D02*
X26267676Y-55475237D01*
X26267676Y-55475237D02*
X26362914Y-55570475D01*
X26362914Y-55570475D02*
X26410533Y-55665713D01*
X24926666Y-56914819D02*
X24926666Y-57629104D01*
X24926666Y-57629104D02*
X24879047Y-57771961D01*
X24879047Y-57771961D02*
X24783809Y-57867200D01*
X24783809Y-57867200D02*
X24640952Y-57914819D01*
X24640952Y-57914819D02*
X24545714Y-57914819D01*
X25926666Y-57914819D02*
X25355238Y-57914819D01*
X25640952Y-57914819D02*
X25640952Y-56914819D01*
X25640952Y-56914819D02*
X25545714Y-57057676D01*
X25545714Y-57057676D02*
X25450476Y-57152914D01*
X25450476Y-57152914D02*
X25355238Y-57200533D01*
X24700714Y-12679104D02*
X25176904Y-12679104D01*
X24605476Y-12964819D02*
X24938809Y-11964819D01*
X24938809Y-11964819D02*
X25272142Y-12964819D01*
X26129285Y-12964819D02*
X25557857Y-12964819D01*
X25843571Y-12964819D02*
X25843571Y-11964819D01*
X25843571Y-11964819D02*
X25748333Y-12107676D01*
X25748333Y-12107676D02*
X25653095Y-12202914D01*
X25653095Y-12202914D02*
X25557857Y-12250533D01*
D12*
%TO.C,R2*%
X25040000Y-51535436D02*
X25040000Y-52989564D01*
X23220000Y-51535436D02*
X23220000Y-52989564D01*
%TO.C,R1*%
X25760000Y-52989564D02*
X25760000Y-51535436D01*
X27580000Y-52989564D02*
X27580000Y-51535436D01*
%TO.C,J1*%
X20750000Y-59550000D02*
X22200000Y-59550000D01*
X20750000Y-61300000D02*
X20750000Y-59550000D01*
X20750000Y-63520000D02*
X20750000Y-64070000D01*
X20750000Y-64070000D02*
X29770000Y-64070000D01*
X22200000Y-59550000D02*
X22200000Y-58660000D01*
X29770000Y-59550000D02*
X28320000Y-59550000D01*
X29770000Y-61300000D02*
X29770000Y-59550000D01*
X29770000Y-64070000D02*
X29770000Y-63520000D01*
%TO.C,A1*%
X13555000Y-21130000D02*
X13555000Y-19130000D01*
X13875000Y-16320000D02*
X13875000Y-62040000D01*
X34305000Y-13670000D02*
X16525000Y-13670000D01*
X34305000Y-64690000D02*
X16525000Y-64690000D01*
X36955000Y-16320000D02*
X36955000Y-62040000D01*
X16525000Y-13670000D02*
G75*
G03*
X13875000Y-16320000I0J-2650000D01*
G01*
X13875000Y-62040000D02*
G75*
G03*
X16525000Y-64690000I2650000J0D01*
G01*
X36955000Y-16320000D02*
G75*
G03*
X34305000Y-13670000I-2650000J0D01*
G01*
X34305000Y-64690000D02*
G75*
G03*
X36955000Y-62040000I0J2650000D01*
G01*
%TD*%
M02*
