%TF.GenerationSoftware,KiCad,Pcbnew,7.0.8*%
%TF.CreationDate,2024-08-15T13:25:32-04:00*%
%TF.ProjectId,R503toFeather,52353033-746f-4466-9561-746865722e6b,rev?*%
%TF.SameCoordinates,Original*%
%TF.FileFunction,Copper,L1,Top*%
%TF.FilePolarity,Positive*%
%FSLAX46Y46*%
G04 Gerber Fmt 4.6, Leading zero omitted, Abs format (unit mm)*
G04 Created by KiCad (PCBNEW 7.0.8) date 2024-08-15 13:25:32*
%MOMM*%
%LPD*%
G01*
G04 APERTURE LIST*
G04 Aperture macros list*
%AMRoundRect*
0 Rectangle with rounded corners*
0 $1 Rounding radius*
0 $2 $3 $4 $5 $6 $7 $8 $9 X,Y pos of 4 corners*
0 Add a 4 corners polygon primitive as box body*
4,1,4,$2,$3,$4,$5,$6,$7,$8,$9,$2,$3,0*
0 Add four circle primitives for the rounded corners*
1,1,$1+$1,$2,$3*
1,1,$1+$1,$4,$5*
1,1,$1+$1,$6,$7*
1,1,$1+$1,$8,$9*
0 Add four rect primitives between the rounded corners*
20,1,$1+$1,$2,$3,$4,$5,0*
20,1,$1+$1,$4,$5,$6,$7,0*
20,1,$1+$1,$6,$7,$8,$9,0*
20,1,$1+$1,$8,$9,$2,$3,0*%
G04 Aperture macros list end*
%TA.AperFunction,SMDPad,CuDef*%
%ADD10RoundRect,0.250000X-0.625000X0.312500X-0.625000X-0.312500X0.625000X-0.312500X0.625000X0.312500X0*%
%TD*%
%TA.AperFunction,SMDPad,CuDef*%
%ADD11RoundRect,0.250000X0.625000X-0.312500X0.625000X0.312500X-0.625000X0.312500X-0.625000X-0.312500X0*%
%TD*%
%TA.AperFunction,SMDPad,CuDef*%
%ADD12RoundRect,0.150000X-0.150000X-0.475000X0.150000X-0.475000X0.150000X0.475000X-0.150000X0.475000X0*%
%TD*%
%TA.AperFunction,SMDPad,CuDef*%
%ADD13RoundRect,0.225000X-0.225000X-0.625000X0.225000X-0.625000X0.225000X0.625000X-0.225000X0.625000X0*%
%TD*%
%TA.AperFunction,ComponentPad*%
%ADD14R,1.600000X1.600000*%
%TD*%
%TA.AperFunction,ComponentPad*%
%ADD15C,1.600000*%
%TD*%
%TA.AperFunction,Conductor*%
%ADD16C,0.300000*%
%TD*%
%TA.AperFunction,Conductor*%
%ADD17C,0.500000*%
%TD*%
G04 APERTURE END LIST*
D10*
%TO.P,R2,1*%
%TO.N,Net-(J1-TXD)*%
X24130000Y-50800000D03*
%TO.P,R2,2*%
%TO.N,Net-(A1-RX)*%
X24130000Y-53725000D03*
%TD*%
D11*
%TO.P,R1,1*%
%TO.N,Net-(J1-RXD)*%
X26670000Y-53725000D03*
%TO.P,R1,2*%
%TO.N,Net-(A1-TX)*%
X26670000Y-50800000D03*
%TD*%
D12*
%TO.P,J1,1,DC3.3*%
%TO.N,VCC*%
X22760000Y-59285000D03*
%TO.P,J1,2,GND*%
%TO.N,Net-(A1-SPARE)*%
X23760000Y-59285000D03*
%TO.P,J1,3,TXD*%
%TO.N,Net-(J1-TXD)*%
X24760000Y-59285000D03*
%TO.P,J1,4,RXD*%
%TO.N,Net-(J1-RXD)*%
X25760000Y-59285000D03*
%TO.P,J1,5,WAKEUP*%
%TO.N,GND*%
X26760000Y-59285000D03*
%TO.P,J1,6,VT3.3*%
%TO.N,VCC*%
X27760000Y-59285000D03*
D13*
%TO.P,J1,MP*%
%TO.N,N/C*%
X21310000Y-62410000D03*
X29210000Y-62410000D03*
%TD*%
D14*
%TO.P,A1,1,~{RESET}*%
%TO.N,unconnected-(A1-~{RESET}-Pad1)*%
X15255000Y-20130000D03*
D15*
%TO.P,A1,2,3V3*%
%TO.N,VCC*%
X15255000Y-22670000D03*
%TO.P,A1,3,AREF*%
%TO.N,unconnected-(A1-AREF-Pad3)*%
X15255000Y-25210000D03*
%TO.P,A1,4,GND*%
%TO.N,GND*%
X15255000Y-27750000D03*
%TO.P,A1,5,A0*%
%TO.N,unconnected-(A1-A0-Pad5)*%
X15255000Y-30290000D03*
%TO.P,A1,6,A1*%
%TO.N,unconnected-(A1-A1-Pad6)*%
X15255000Y-32830000D03*
%TO.P,A1,7,A2*%
%TO.N,unconnected-(A1-A2-Pad7)*%
X15255000Y-35370000D03*
%TO.P,A1,8,A3*%
%TO.N,unconnected-(A1-A3-Pad8)*%
X15255000Y-37910000D03*
%TO.P,A1,9,A4*%
%TO.N,unconnected-(A1-A4-Pad9)*%
X15255000Y-40450000D03*
%TO.P,A1,10,A5*%
%TO.N,unconnected-(A1-A5-Pad10)*%
X15255000Y-42990000D03*
%TO.P,A1,11,SCK*%
%TO.N,unconnected-(A1-SCK-Pad11)*%
X15255000Y-45530000D03*
%TO.P,A1,12,MOSI*%
%TO.N,unconnected-(A1-MOSI-Pad12)*%
X15255000Y-48070000D03*
%TO.P,A1,13,MISO*%
%TO.N,unconnected-(A1-MISO-Pad13)*%
X15255000Y-50610000D03*
%TO.P,A1,14,RX*%
%TO.N,Net-(A1-RX)*%
X15255000Y-53150000D03*
%TO.P,A1,15,TX*%
%TO.N,Net-(A1-TX)*%
X15255000Y-55690000D03*
%TO.P,A1,16,SPARE*%
%TO.N,Net-(A1-SPARE)*%
X15255000Y-58230000D03*
%TO.P,A1,17,SDA*%
%TO.N,unconnected-(A1-SDA-Pad17)*%
X35575000Y-58230000D03*
%TO.P,A1,18,SCL*%
%TO.N,unconnected-(A1-SCL-Pad18)*%
X35575000Y-55690000D03*
%TO.P,A1,19,D0*%
%TO.N,unconnected-(A1-D0-Pad19)*%
X35575000Y-53150000D03*
%TO.P,A1,20,D1*%
%TO.N,unconnected-(A1-D1-Pad20)*%
X35575000Y-50610000D03*
%TO.P,A1,21,D2*%
%TO.N,unconnected-(A1-D2-Pad21)*%
X35575000Y-48070000D03*
%TO.P,A1,22,D3*%
%TO.N,unconnected-(A1-D3-Pad22)*%
X35575000Y-45530000D03*
%TO.P,A1,23,D4*%
%TO.N,unconnected-(A1-D4-Pad23)*%
X35575000Y-42990000D03*
%TO.P,A1,24,D5*%
%TO.N,unconnected-(A1-D5-Pad24)*%
X35575000Y-40450000D03*
%TO.P,A1,25,D6*%
%TO.N,unconnected-(A1-D6-Pad25)*%
X35575000Y-37910000D03*
%TO.P,A1,26,USB*%
%TO.N,unconnected-(A1-USB-Pad26)*%
X35575000Y-35370000D03*
%TO.P,A1,27,EN*%
%TO.N,unconnected-(A1-EN-Pad27)*%
X35575000Y-32830000D03*
%TO.P,A1,28,VBAT*%
%TO.N,unconnected-(A1-VBAT-Pad28)*%
X35575000Y-30290000D03*
%TD*%
D16*
%TO.N,VCC*%
X25400000Y-60960000D02*
X26710000Y-60960000D01*
X25400000Y-60960000D02*
X33020000Y-60960000D01*
X26710000Y-60960000D02*
X27760000Y-59910000D01*
X33020000Y-60960000D02*
X33020000Y-39370000D01*
X23810000Y-60960000D02*
X25400000Y-60960000D01*
X33020000Y-39370000D02*
X16320000Y-22670000D01*
X27760000Y-59910000D02*
X27760000Y-59285000D01*
X16320000Y-22670000D02*
X15255000Y-22670000D01*
X22760000Y-59285000D02*
X22760000Y-59910000D01*
X22760000Y-59910000D02*
X23810000Y-60960000D01*
%TO.N,GND*%
X30480000Y-39370000D02*
X18860000Y-27750000D01*
X30480000Y-52070000D02*
X30480000Y-39370000D01*
X26760000Y-55790000D02*
X30480000Y-52070000D01*
X18860000Y-27750000D02*
X15255000Y-27750000D01*
X26760000Y-59285000D02*
X26760000Y-55790000D01*
D17*
%TO.N,Net-(A1-RX)*%
X26042500Y-51812500D02*
X28197500Y-51812500D01*
X29210000Y-49530000D02*
X27940000Y-48260000D01*
X24130000Y-53725000D02*
X26042500Y-51812500D01*
X28197500Y-51812500D02*
X29210000Y-50800000D01*
X22860000Y-48260000D02*
X17970000Y-53150000D01*
X29210000Y-50800000D02*
X29210000Y-49530000D01*
X27940000Y-48260000D02*
X22860000Y-48260000D01*
X17970000Y-53150000D02*
X15255000Y-53150000D01*
%TO.N,Net-(A1-TX)*%
X26670000Y-50800000D02*
X26670000Y-49530000D01*
X22860000Y-49530000D02*
X16700000Y-55690000D01*
X26670000Y-49530000D02*
X22860000Y-49530000D01*
X16700000Y-55690000D02*
X15255000Y-55690000D01*
%TO.N,Net-(A1-SPARE)*%
X23760000Y-59285000D02*
X23760000Y-58660000D01*
X23760000Y-58660000D02*
X20980000Y-55880000D01*
X16700000Y-58230000D02*
X15255000Y-58230000D01*
X20980000Y-55880000D02*
X19050000Y-55880000D01*
X19050000Y-55880000D02*
X16700000Y-58230000D01*
%TO.N,Net-(J1-TXD)*%
X24760000Y-57780000D02*
X21590000Y-54610000D01*
X21590000Y-54610000D02*
X21590000Y-53340000D01*
X21590000Y-53340000D02*
X24130000Y-50800000D01*
X24760000Y-59285000D02*
X24760000Y-57780000D01*
%TO.N,Net-(J1-RXD)*%
X25760000Y-54635000D02*
X26670000Y-53725000D01*
X25760000Y-59285000D02*
X25760000Y-54635000D01*
%TD*%
M02*
