M48
; DRILL file {KiCad 7.0.8} date 2024 August 15, Thursday 13:25:35
; FORMAT={-:-/ absolute / inch / decimal}
; #@! TF.CreationDate,2024-08-15T13:25:35-04:00
; #@! TF.GenerationSoftware,Kicad,Pcbnew,7.0.8
; #@! TF.FileFunction,Plated,1,2,PTH
FMAT,2
INCH
; #@! TA.AperFunction,Plated,PTH,ComponentDrill
T1C0.0315
%
G90
G05
T1
X0.6006Y-0.7925
X0.6006Y-0.8925
X0.6006Y-0.9925
X0.6006Y-1.0925
X0.6006Y-1.1925
X0.6006Y-1.2925
X0.6006Y-1.3925
X0.6006Y-1.4925
X0.6006Y-1.5925
X0.6006Y-1.6925
X0.6006Y-1.7925
X0.6006Y-1.8925
X0.6006Y-1.9925
X0.6006Y-2.0925
X0.6006Y-2.1925
X0.6006Y-2.2925
X1.4006Y-1.1925
X1.4006Y-1.2925
X1.4006Y-1.3925
X1.4006Y-1.4925
X1.4006Y-1.5925
X1.4006Y-1.6925
X1.4006Y-1.7925
X1.4006Y-1.8925
X1.4006Y-1.9925
X1.4006Y-2.0925
X1.4006Y-2.1925
X1.4006Y-2.2925
T0
M30
