%TF.GenerationSoftware,KiCad,Pcbnew,7.0.8*%
%TF.CreationDate,2024-08-15T13:25:32-04:00*%
%TF.ProjectId,R503toFeather,52353033-746f-4466-9561-746865722e6b,rev?*%
%TF.SameCoordinates,Original*%
%TF.FileFunction,Soldermask,Top*%
%TF.FilePolarity,Negative*%
%FSLAX46Y46*%
G04 Gerber Fmt 4.6, Leading zero omitted, Abs format (unit mm)*
G04 Created by KiCad (PCBNEW 7.0.8) date 2024-08-15 13:25:32*
%MOMM*%
%LPD*%
G01*
G04 APERTURE LIST*
G04 Aperture macros list*
%AMRoundRect*
0 Rectangle with rounded corners*
0 $1 Rounding radius*
0 $2 $3 $4 $5 $6 $7 $8 $9 X,Y pos of 4 corners*
0 Add a 4 corners polygon primitive as box body*
4,1,4,$2,$3,$4,$5,$6,$7,$8,$9,$2,$3,0*
0 Add four circle primitives for the rounded corners*
1,1,$1+$1,$2,$3*
1,1,$1+$1,$4,$5*
1,1,$1+$1,$6,$7*
1,1,$1+$1,$8,$9*
0 Add four rect primitives between the rounded corners*
20,1,$1+$1,$2,$3,$4,$5,0*
20,1,$1+$1,$4,$5,$6,$7,0*
20,1,$1+$1,$6,$7,$8,$9,0*
20,1,$1+$1,$8,$9,$2,$3,0*%
G04 Aperture macros list end*
%ADD10RoundRect,0.250000X-0.625000X0.312500X-0.625000X-0.312500X0.625000X-0.312500X0.625000X0.312500X0*%
%ADD11RoundRect,0.250000X0.625000X-0.312500X0.625000X0.312500X-0.625000X0.312500X-0.625000X-0.312500X0*%
%ADD12RoundRect,0.150000X-0.150000X-0.475000X0.150000X-0.475000X0.150000X0.475000X-0.150000X0.475000X0*%
%ADD13RoundRect,0.225000X-0.225000X-0.625000X0.225000X-0.625000X0.225000X0.625000X-0.225000X0.625000X0*%
%ADD14R,1.600000X1.600000*%
%ADD15C,1.600000*%
G04 APERTURE END LIST*
D10*
%TO.C,R2*%
X24130000Y-50800000D03*
X24130000Y-53725000D03*
%TD*%
D11*
%TO.C,R1*%
X26670000Y-53725000D03*
X26670000Y-50800000D03*
%TD*%
D12*
%TO.C,J1*%
X22760000Y-59285000D03*
X23760000Y-59285000D03*
X24760000Y-59285000D03*
X25760000Y-59285000D03*
X26760000Y-59285000D03*
X27760000Y-59285000D03*
D13*
X21310000Y-62410000D03*
X29210000Y-62410000D03*
%TD*%
D14*
%TO.C,A1*%
X15255000Y-20130000D03*
D15*
X15255000Y-22670000D03*
X15255000Y-25210000D03*
X15255000Y-27750000D03*
X15255000Y-30290000D03*
X15255000Y-32830000D03*
X15255000Y-35370000D03*
X15255000Y-37910000D03*
X15255000Y-40450000D03*
X15255000Y-42990000D03*
X15255000Y-45530000D03*
X15255000Y-48070000D03*
X15255000Y-50610000D03*
X15255000Y-53150000D03*
X15255000Y-55690000D03*
X15255000Y-58230000D03*
X35575000Y-58230000D03*
X35575000Y-55690000D03*
X35575000Y-53150000D03*
X35575000Y-50610000D03*
X35575000Y-48070000D03*
X35575000Y-45530000D03*
X35575000Y-42990000D03*
X35575000Y-40450000D03*
X35575000Y-37910000D03*
X35575000Y-35370000D03*
X35575000Y-32830000D03*
X35575000Y-30290000D03*
%TD*%
M02*
