M48
; DRILL file {KiCad 9.0.0} date 2025-05-18T10:55:18-0400
; FORMAT={-:-/ absolute / metric / decimal}
; #@! TF.CreationDate,2025-05-18T10:55:18-04:00
; #@! TF.GenerationSoftware,Kicad,Pcbnew,9.0.0
; #@! TF.FileFunction,Plated,1,2,PTH
FMAT,2
METRIC
; #@! TA.AperFunction,Plated,PTH,ComponentDrill
T1C0.800
%
G90
G05
T1
X15.255Y-20.13
X15.255Y-22.67
X15.255Y-25.21
X15.255Y-27.75
X15.255Y-30.29
X15.255Y-32.83
X15.255Y-35.37
X15.255Y-37.91
X15.255Y-40.45
X15.255Y-42.99
X15.255Y-45.53
X15.255Y-48.07
X15.255Y-50.61
X15.255Y-53.15
X15.255Y-55.69
X15.255Y-58.23
X35.575Y-30.29
X35.575Y-32.83
X35.575Y-35.37
X35.575Y-37.91
X35.575Y-40.45
X35.575Y-42.99
X35.575Y-45.53
X35.575Y-48.07
X35.575Y-50.61
X35.575Y-53.15
X35.575Y-55.69
X35.575Y-58.23
M30
