%TF.GenerationSoftware,KiCad,Pcbnew,9.0.0*%
%TF.CreationDate,2025-05-18T10:55:16-04:00*%
%TF.ProjectId,R503toFeather,52353033-746f-4466-9561-746865722e6b,rev?*%
%TF.SameCoordinates,Original*%
%TF.FileFunction,Legend,Top*%
%TF.FilePolarity,Positive*%
%FSLAX46Y46*%
G04 Gerber Fmt 4.6, Leading zero omitted, Abs format (unit mm)*
G04 Created by KiCad (PCBNEW 9.0.0) date 2025-05-18 10:55:16*
%MOMM*%
%LPD*%
G01*
G04 APERTURE LIST*
%ADD10C,0.300000*%
%ADD11C,0.150000*%
%ADD12C,0.750000*%
%ADD13C,0.120000*%
G04 APERTURE END LIST*
D10*
G36*
X18568567Y-16859660D02*
G01*
X18453735Y-16888184D01*
X18350305Y-16904293D01*
X18256974Y-16909394D01*
X18157995Y-16902970D01*
X18066413Y-16884183D01*
X17981109Y-16853396D01*
X17901143Y-16810476D01*
X17829116Y-16756341D01*
X17764500Y-16689597D01*
X17706937Y-16608904D01*
X17656503Y-16512438D01*
X17608203Y-16377006D01*
X17578352Y-16227733D01*
X17568026Y-16062360D01*
X17578111Y-15898936D01*
X17607281Y-15751193D01*
X17654488Y-15616953D01*
X17703807Y-15521378D01*
X17760862Y-15440610D01*
X17825621Y-15373000D01*
X17898487Y-15317358D01*
X17979588Y-15272554D01*
X18063749Y-15240858D01*
X18151771Y-15221776D01*
X18244610Y-15215326D01*
X18338276Y-15222005D01*
X18445163Y-15243447D01*
X18567468Y-15282187D01*
X18567468Y-15476818D01*
X18451968Y-15421300D01*
X18342243Y-15389674D01*
X18236458Y-15379457D01*
X18158050Y-15388608D01*
X18084215Y-15416036D01*
X18013159Y-15463171D01*
X17952674Y-15524372D01*
X17898166Y-15605089D01*
X17850035Y-15709093D01*
X17816124Y-15818797D01*
X17795333Y-15936670D01*
X17788211Y-16063917D01*
X17795779Y-16192061D01*
X17818015Y-16312340D01*
X17854564Y-16425888D01*
X17905539Y-16533688D01*
X17958715Y-16610832D01*
X18020883Y-16668985D01*
X18092927Y-16710519D01*
X18176810Y-16736231D01*
X18275384Y-16745263D01*
X18355526Y-16739767D01*
X18355526Y-16235284D01*
X18196616Y-16235284D01*
X18196616Y-16071153D01*
X18568567Y-16071153D01*
X18568567Y-16859660D01*
G37*
G36*
X18962226Y-16862500D02*
G01*
X18962226Y-15707719D01*
X19158780Y-15707719D01*
X19158780Y-15953641D01*
X19220140Y-15869464D01*
X19286761Y-15801940D01*
X19358906Y-15749210D01*
X19438787Y-15710030D01*
X19524401Y-15686440D01*
X19617285Y-15678410D01*
X19721035Y-15685813D01*
X19827395Y-15708452D01*
X19827395Y-16129771D01*
X19637984Y-16129771D01*
X19637984Y-15867912D01*
X19564986Y-15860127D01*
X19497324Y-15868806D01*
X19428730Y-15895731D01*
X19357441Y-15943750D01*
X19294512Y-16003857D01*
X19228392Y-16085920D01*
X19158780Y-16194343D01*
X19158780Y-16862500D01*
X18962226Y-16862500D01*
G37*
G36*
X20695781Y-15685737D02*
G01*
X20782456Y-15706853D01*
X20860037Y-15741084D01*
X20929931Y-15788603D01*
X20993074Y-15850418D01*
X21056944Y-15940133D01*
X21103049Y-16040930D01*
X21131596Y-16154858D01*
X21141543Y-16284560D01*
X21131602Y-16414300D01*
X21103064Y-16528359D01*
X21056958Y-16629361D01*
X20993074Y-16719343D01*
X20929907Y-16781342D01*
X20860000Y-16828989D01*
X20782418Y-16863303D01*
X20695757Y-16884467D01*
X20598225Y-16891809D01*
X20500245Y-16884455D01*
X20413265Y-16863269D01*
X20335477Y-16828938D01*
X20265463Y-16781298D01*
X20202277Y-16719343D01*
X20138436Y-16629367D01*
X20092357Y-16528366D01*
X20063835Y-16414305D01*
X20053899Y-16284560D01*
X20266849Y-16284560D01*
X20273279Y-16389227D01*
X20291223Y-16476515D01*
X20319164Y-16549229D01*
X20356333Y-16609708D01*
X20405468Y-16661676D01*
X20461145Y-16697966D01*
X20524684Y-16720020D01*
X20598225Y-16727677D01*
X20671229Y-16720038D01*
X20734424Y-16698015D01*
X20789922Y-16661732D01*
X20839018Y-16609708D01*
X20876228Y-16549223D01*
X20904198Y-16476507D01*
X20922158Y-16389221D01*
X20928594Y-16284560D01*
X20922171Y-16180509D01*
X20904232Y-16093577D01*
X20876265Y-16021010D01*
X20839018Y-15960511D01*
X20789922Y-15908487D01*
X20734424Y-15872204D01*
X20671229Y-15850181D01*
X20598225Y-15842541D01*
X20524684Y-15850199D01*
X20461145Y-15872253D01*
X20405468Y-15908542D01*
X20356333Y-15960511D01*
X20319128Y-16021004D01*
X20291189Y-16093569D01*
X20273266Y-16180503D01*
X20266849Y-16284560D01*
X20053899Y-16284560D01*
X20063842Y-16154853D01*
X20092372Y-16040923D01*
X20138450Y-15940127D01*
X20202277Y-15850418D01*
X20265439Y-15788647D01*
X20335440Y-15741134D01*
X20413227Y-15706886D01*
X20500221Y-15685748D01*
X20598225Y-15678410D01*
X20695781Y-15685737D01*
G37*
G36*
X21431063Y-16862500D02*
G01*
X21243484Y-15707719D01*
X21426850Y-15707719D01*
X21536026Y-16409673D01*
X21561763Y-16572614D01*
X21586584Y-16409490D01*
X21769675Y-15707719D01*
X21945438Y-15707719D01*
X22152159Y-16409398D01*
X22184582Y-16556311D01*
X22205832Y-16409673D01*
X22316016Y-15707719D01*
X22468606Y-15707719D01*
X22282035Y-16862500D01*
X22098945Y-16862500D01*
X21878851Y-16120703D01*
X21844413Y-15960419D01*
X21844047Y-15960419D01*
X21812723Y-16119604D01*
X21621481Y-16862500D01*
X21431063Y-16862500D01*
G37*
G36*
X24462794Y-15268159D02*
G01*
X24562285Y-15283472D01*
X24630339Y-15304993D01*
X24692123Y-15338796D01*
X24742832Y-15381675D01*
X24783754Y-15434228D01*
X24814085Y-15493813D01*
X24832043Y-15555630D01*
X24838067Y-15620708D01*
X24829221Y-15712556D01*
X24801980Y-15806729D01*
X24758855Y-15895551D01*
X24702421Y-15973700D01*
X24629433Y-16041911D01*
X24522353Y-16111270D01*
X24983880Y-16862500D01*
X24730906Y-16862500D01*
X24309495Y-16182527D01*
X24106987Y-16182527D01*
X24106987Y-16862500D01*
X23893947Y-16862500D01*
X23893947Y-16018396D01*
X24106987Y-16018396D01*
X24393484Y-16018396D01*
X24481322Y-15962009D01*
X24537007Y-15910319D01*
X24579007Y-15852741D01*
X24608815Y-15792899D01*
X24627262Y-15730073D01*
X24633270Y-15668335D01*
X24623975Y-15598283D01*
X24597310Y-15540471D01*
X24552670Y-15491931D01*
X24494366Y-15459239D01*
X24401096Y-15435716D01*
X24258845Y-15426352D01*
X24106987Y-15426352D01*
X24106987Y-16018396D01*
X23893947Y-16018396D01*
X23893947Y-15262220D01*
X24322410Y-15262220D01*
X24462794Y-15268159D01*
G37*
G36*
X25192800Y-16035982D02*
G01*
X25192800Y-15262220D01*
X26089659Y-15262220D01*
X26089659Y-15449799D01*
X25389354Y-15449799D01*
X25389354Y-15836680D01*
X25419213Y-15836680D01*
X25561669Y-15843516D01*
X25683365Y-15862724D01*
X25787105Y-15892692D01*
X25875370Y-15932312D01*
X25950258Y-15981027D01*
X26017986Y-16043395D01*
X26069533Y-16112323D01*
X26106376Y-16188680D01*
X26128995Y-16273909D01*
X26136829Y-16369923D01*
X26128219Y-16470905D01*
X26103065Y-16562821D01*
X26061541Y-16647444D01*
X26005050Y-16722792D01*
X25934821Y-16786679D01*
X25849233Y-16839785D01*
X25755837Y-16878491D01*
X25659047Y-16901616D01*
X25557698Y-16909394D01*
X25455635Y-16902385D01*
X25325364Y-16878686D01*
X25161017Y-16833740D01*
X25161017Y-16618409D01*
X25255378Y-16662460D01*
X25359495Y-16697636D01*
X25465323Y-16720557D01*
X25557698Y-16727677D01*
X25646452Y-16716980D01*
X25734652Y-16684172D01*
X25788252Y-16650505D01*
X25832721Y-16608382D01*
X25868925Y-16557043D01*
X25895893Y-16499830D01*
X25911574Y-16443220D01*
X25916735Y-16386409D01*
X25908739Y-16316634D01*
X25885096Y-16252999D01*
X25844993Y-16193771D01*
X25785943Y-16137923D01*
X25719726Y-16098561D01*
X25625648Y-16066526D01*
X25495549Y-16044388D01*
X25319836Y-16035982D01*
X25192800Y-16035982D01*
G37*
G36*
X26997842Y-15224942D02*
G01*
X27090502Y-15252563D01*
X27171986Y-15297527D01*
X27244154Y-15360775D01*
X27307912Y-15444761D01*
X27367011Y-15560621D01*
X27411833Y-15699269D01*
X27440720Y-15864771D01*
X27451069Y-16061810D01*
X27440709Y-16259459D01*
X27411807Y-16425334D01*
X27366982Y-16564162D01*
X27307912Y-16680050D01*
X27244159Y-16763998D01*
X27171994Y-16827220D01*
X27090510Y-16872169D01*
X26997848Y-16899780D01*
X26891356Y-16909394D01*
X26785320Y-16899801D01*
X26692902Y-16872228D01*
X26611485Y-16827304D01*
X26539234Y-16764067D01*
X26475258Y-16680050D01*
X26433436Y-16598259D01*
X26656883Y-16598259D01*
X26704617Y-16663667D01*
X26756534Y-16708169D01*
X26816360Y-16735920D01*
X26883204Y-16745263D01*
X26955192Y-16736749D01*
X27016784Y-16712163D01*
X27070433Y-16671205D01*
X27117386Y-16611340D01*
X27157519Y-16528101D01*
X27202089Y-16381228D01*
X27229629Y-16220960D01*
X27239127Y-16045416D01*
X27228866Y-15884472D01*
X27198919Y-15736113D01*
X26656883Y-16598259D01*
X26433436Y-16598259D01*
X26415987Y-16564134D01*
X26371021Y-16425296D01*
X26342032Y-16259431D01*
X26331643Y-16061810D01*
X26332232Y-16050636D01*
X26544592Y-16050636D01*
X26548714Y-16194343D01*
X26558037Y-16276650D01*
X26581961Y-16395751D01*
X27127936Y-15538642D01*
X27089957Y-15479382D01*
X27052918Y-15438632D01*
X27016561Y-15412521D01*
X26954688Y-15387608D01*
X26891356Y-15379457D01*
X26827994Y-15386747D01*
X26771896Y-15408056D01*
X26721256Y-15443854D01*
X26675072Y-15496286D01*
X26633252Y-15568959D01*
X26596542Y-15663495D01*
X26568729Y-15773694D01*
X26550917Y-15901882D01*
X26544592Y-16050636D01*
X26332232Y-16050636D01*
X26342022Y-15864799D01*
X26370995Y-15699307D01*
X26415958Y-15560649D01*
X26475258Y-15444761D01*
X26539239Y-15360706D01*
X26611493Y-15297444D01*
X26692910Y-15252504D01*
X26785325Y-15224922D01*
X26891356Y-15215326D01*
X26997842Y-15224942D01*
G37*
G36*
X27666308Y-16831450D02*
G01*
X27666308Y-16623722D01*
X27791525Y-16681019D01*
X27900084Y-16718350D01*
X27994300Y-16738892D01*
X28076361Y-16745263D01*
X28153521Y-16738941D01*
X28221349Y-16720759D01*
X28281495Y-16691257D01*
X28335197Y-16650100D01*
X28379811Y-16599262D01*
X28411397Y-16542413D01*
X28430714Y-16478334D01*
X28437413Y-16405277D01*
X28430151Y-16332336D01*
X28409138Y-16268278D01*
X28374505Y-16211237D01*
X28325031Y-16159996D01*
X28267500Y-16122698D01*
X28188557Y-16093020D01*
X28082370Y-16072859D01*
X27941997Y-16065291D01*
X27833462Y-16065291D01*
X27833462Y-15901160D01*
X27983030Y-15901160D01*
X28084163Y-15894381D01*
X28162901Y-15876000D01*
X28223689Y-15848170D01*
X28270076Y-15811858D01*
X28320351Y-15748202D01*
X28349003Y-15682724D01*
X28358462Y-15613472D01*
X28350367Y-15550800D01*
X28326674Y-15496046D01*
X28286471Y-15447143D01*
X28234289Y-15411614D01*
X28162546Y-15388213D01*
X28065004Y-15379457D01*
X27954702Y-15389447D01*
X27833220Y-15421138D01*
X27698090Y-15478009D01*
X27698090Y-15289240D01*
X27831365Y-15246690D01*
X27950637Y-15222844D01*
X28057860Y-15215326D01*
X28208380Y-15224572D01*
X28320324Y-15249084D01*
X28402072Y-15285147D01*
X28460402Y-15330822D01*
X28510015Y-15392068D01*
X28544286Y-15455733D01*
X28564639Y-15522730D01*
X28571502Y-15594330D01*
X28564976Y-15665849D01*
X28545484Y-15734182D01*
X28512518Y-15800409D01*
X28466898Y-15858050D01*
X28398866Y-15914160D01*
X28302866Y-15968754D01*
X28389130Y-15999244D01*
X28455637Y-16032419D01*
X28505832Y-16067672D01*
X28568692Y-16133269D01*
X28613726Y-16209089D01*
X28640993Y-16294197D01*
X28650454Y-16391813D01*
X28639753Y-16500740D01*
X28608679Y-16597327D01*
X28557339Y-16684180D01*
X28483941Y-16763032D01*
X28396996Y-16825689D01*
X28297932Y-16871156D01*
X28184507Y-16899473D01*
X28053830Y-16909394D01*
X27887683Y-16898037D01*
X27793956Y-16877710D01*
X27666308Y-16831450D01*
G37*
G36*
X29519952Y-15269948D02*
G01*
X29635073Y-15289794D01*
X29712819Y-15317633D01*
X29782423Y-15360628D01*
X29839457Y-15414357D01*
X29885193Y-15479749D01*
X29918221Y-15552855D01*
X29938249Y-15631732D01*
X29945094Y-15717703D01*
X29936143Y-15818194D01*
X29909511Y-15913497D01*
X29864677Y-16005116D01*
X29804237Y-16087009D01*
X29730036Y-16155104D01*
X29640553Y-16210371D01*
X29541948Y-16247907D01*
X29414388Y-16272925D01*
X29251108Y-16282178D01*
X29169958Y-16282178D01*
X29169958Y-16862500D01*
X28956918Y-16862500D01*
X28956918Y-16118047D01*
X29169958Y-16118047D01*
X29256237Y-16118047D01*
X29383923Y-16111258D01*
X29475679Y-16093595D01*
X29539803Y-16068313D01*
X29596890Y-16030225D01*
X29644078Y-15982846D01*
X29682227Y-15925248D01*
X29709907Y-15861462D01*
X29726524Y-15794389D01*
X29732144Y-15723107D01*
X29721654Y-15635596D01*
X29691963Y-15564537D01*
X29643301Y-15506127D01*
X29597744Y-15475850D01*
X29529247Y-15450798D01*
X29430115Y-15433158D01*
X29291133Y-15426352D01*
X29169958Y-15426352D01*
X29169958Y-16118047D01*
X28956918Y-16118047D01*
X28956918Y-15262220D01*
X29355614Y-15262220D01*
X29519952Y-15269948D01*
G37*
G36*
X30291674Y-16862500D02*
G01*
X30291674Y-15707719D01*
X30488229Y-15707719D01*
X30488229Y-15953641D01*
X30549589Y-15869464D01*
X30616210Y-15801940D01*
X30688355Y-15749210D01*
X30768236Y-15710030D01*
X30853850Y-15686440D01*
X30946734Y-15678410D01*
X31050483Y-15685813D01*
X31156843Y-15708452D01*
X31156843Y-16129771D01*
X30967433Y-16129771D01*
X30967433Y-15867912D01*
X30894435Y-15860127D01*
X30826773Y-15868806D01*
X30758178Y-15895731D01*
X30686890Y-15943750D01*
X30623960Y-16003857D01*
X30557841Y-16085920D01*
X30488229Y-16194343D01*
X30488229Y-16862500D01*
X30291674Y-16862500D01*
G37*
G36*
X32025230Y-15685737D02*
G01*
X32111904Y-15706853D01*
X32189486Y-15741084D01*
X32259380Y-15788603D01*
X32322523Y-15850418D01*
X32386393Y-15940133D01*
X32432498Y-16040930D01*
X32461044Y-16154858D01*
X32470992Y-16284560D01*
X32461051Y-16414300D01*
X32432513Y-16528359D01*
X32386407Y-16629361D01*
X32322523Y-16719343D01*
X32259356Y-16781342D01*
X32189449Y-16828989D01*
X32111867Y-16863303D01*
X32025206Y-16884467D01*
X31927674Y-16891809D01*
X31829694Y-16884455D01*
X31742713Y-16863269D01*
X31664926Y-16828938D01*
X31594912Y-16781298D01*
X31531726Y-16719343D01*
X31467884Y-16629367D01*
X31421806Y-16528366D01*
X31393284Y-16414305D01*
X31383348Y-16284560D01*
X31596297Y-16284560D01*
X31602728Y-16389227D01*
X31620671Y-16476515D01*
X31648613Y-16549229D01*
X31685782Y-16609708D01*
X31734916Y-16661676D01*
X31790594Y-16697966D01*
X31854133Y-16720020D01*
X31927674Y-16727677D01*
X32000678Y-16720038D01*
X32063873Y-16698015D01*
X32119371Y-16661732D01*
X32168467Y-16609708D01*
X32205676Y-16549223D01*
X32233646Y-16476507D01*
X32251606Y-16389221D01*
X32258043Y-16284560D01*
X32251620Y-16180509D01*
X32233680Y-16093577D01*
X32205713Y-16021010D01*
X32168467Y-15960511D01*
X32119371Y-15908487D01*
X32063873Y-15872204D01*
X32000678Y-15850181D01*
X31927674Y-15842541D01*
X31854133Y-15850199D01*
X31790594Y-15872253D01*
X31734916Y-15908542D01*
X31685782Y-15960511D01*
X31648576Y-16021004D01*
X31620637Y-16093569D01*
X31602715Y-16180503D01*
X31596297Y-16284560D01*
X31383348Y-16284560D01*
X31393291Y-16154853D01*
X31421821Y-16040923D01*
X31467899Y-15940127D01*
X31531726Y-15850418D01*
X31594888Y-15788647D01*
X31664889Y-15741134D01*
X31742676Y-15706886D01*
X31829669Y-15685748D01*
X31927674Y-15678410D01*
X32025230Y-15685737D01*
G37*
G36*
X17679767Y-19382500D02*
G01*
X17679767Y-17788082D01*
X18560324Y-17788082D01*
X18560324Y-17952213D01*
X17892808Y-17952213D01*
X17892808Y-18485640D01*
X18496760Y-18485640D01*
X18496760Y-18649771D01*
X17892808Y-18649771D01*
X17892808Y-19382500D01*
X17679767Y-19382500D01*
G37*
G36*
X19485561Y-18207999D02*
G01*
X19572213Y-18235555D01*
X19648192Y-18280573D01*
X19715287Y-18344315D01*
X19765794Y-18419515D01*
X19804660Y-18516013D01*
X19830273Y-18638720D01*
X19839668Y-18793569D01*
X19839668Y-18837349D01*
X19050061Y-18837349D01*
X19055663Y-18913402D01*
X19072149Y-18984439D01*
X19099429Y-19051398D01*
X19136926Y-19112963D01*
X19180086Y-19161493D01*
X19229122Y-19198676D01*
X19284473Y-19225640D01*
X19345097Y-19242043D01*
X19412212Y-19247677D01*
X19500720Y-19240781D01*
X19597667Y-19219024D01*
X19704642Y-19180323D01*
X19823273Y-19122015D01*
X19823273Y-19303182D01*
X19666406Y-19365401D01*
X19521931Y-19400579D01*
X19387574Y-19411809D01*
X19286083Y-19402978D01*
X19193919Y-19377190D01*
X19109229Y-19334597D01*
X19033911Y-19276760D01*
X18968575Y-19203883D01*
X18912766Y-19114046D01*
X18871864Y-19016221D01*
X18847380Y-18914337D01*
X18839127Y-18807124D01*
X18846879Y-18703915D01*
X18849911Y-18690804D01*
X19062060Y-18690804D01*
X19626627Y-18690804D01*
X19626627Y-18666074D01*
X19618290Y-18575508D01*
X19595152Y-18502974D01*
X19558667Y-18444699D01*
X19508556Y-18399190D01*
X19449103Y-18372008D01*
X19377316Y-18362541D01*
X19304289Y-18371853D01*
X19238819Y-18399362D01*
X19178747Y-18446347D01*
X19130900Y-18506933D01*
X19091633Y-18586925D01*
X19062060Y-18690804D01*
X18849911Y-18690804D01*
X18870089Y-18603550D01*
X18909194Y-18504965D01*
X18962984Y-18414202D01*
X19028051Y-18339532D01*
X19105016Y-18279193D01*
X19191880Y-18234409D01*
X19284807Y-18207540D01*
X19385559Y-18198410D01*
X19485561Y-18207999D01*
G37*
G36*
X20830317Y-18228086D02*
G01*
X20879318Y-18233581D01*
X21073858Y-18233581D01*
X21073858Y-19046360D01*
X21079483Y-19183042D01*
X21094872Y-19293728D01*
X21118096Y-19382500D01*
X20912749Y-19382500D01*
X20893247Y-19278141D01*
X20877028Y-19130899D01*
X20816039Y-19215772D01*
X20747491Y-19284655D01*
X20670948Y-19339177D01*
X20586522Y-19381393D01*
X20511686Y-19404572D01*
X20444444Y-19411809D01*
X20375269Y-19404333D01*
X20309735Y-19381946D01*
X20246436Y-19343676D01*
X20184417Y-19287245D01*
X20137086Y-19222363D01*
X20101193Y-19140530D01*
X20077804Y-19037966D01*
X20069287Y-18909981D01*
X20070803Y-18887633D01*
X20282236Y-18887633D01*
X20290539Y-18999762D01*
X20312639Y-19082988D01*
X20345617Y-19143905D01*
X20392523Y-19194033D01*
X20439860Y-19221312D01*
X20489507Y-19230092D01*
X20545513Y-19221554D01*
X20609599Y-19193401D01*
X20684687Y-19139875D01*
X20751225Y-19075449D01*
X20815113Y-18995268D01*
X20876296Y-18897158D01*
X20876296Y-18406322D01*
X20778464Y-18386405D01*
X20690549Y-18380127D01*
X20606121Y-18388764D01*
X20530578Y-18413978D01*
X20461914Y-18455941D01*
X20398831Y-18516414D01*
X20349774Y-18587133D01*
X20313471Y-18670821D01*
X20290432Y-18769957D01*
X20282236Y-18887633D01*
X20070803Y-18887633D01*
X20078164Y-18779124D01*
X20103840Y-18661292D01*
X20145491Y-18554516D01*
X20203238Y-18455704D01*
X20271115Y-18373836D01*
X20349464Y-18307037D01*
X20438750Y-18257575D01*
X20543061Y-18226823D01*
X20665911Y-18215996D01*
X20830317Y-18228086D01*
G37*
G36*
X22346058Y-19333224D02*
G01*
X22218069Y-19382223D01*
X22148770Y-19401001D01*
X22031351Y-19411809D01*
X21951987Y-19406461D01*
X21878697Y-19390827D01*
X21810525Y-19365189D01*
X21748466Y-19328626D01*
X21698456Y-19282885D01*
X21659125Y-19227253D01*
X21633137Y-19163790D01*
X21614994Y-19072767D01*
X21608017Y-18945793D01*
X21608017Y-18485640D01*
X21321978Y-18485640D01*
X21321978Y-18321509D01*
X21608017Y-18321509D01*
X21608017Y-17864286D01*
X21804663Y-17864286D01*
X21804663Y-18321509D01*
X22314275Y-18321509D01*
X22314275Y-18485640D01*
X21804663Y-18485640D01*
X21804663Y-18943412D01*
X21809299Y-19036485D01*
X21820975Y-19098702D01*
X21836994Y-19138318D01*
X21875267Y-19187723D01*
X21923548Y-19221299D01*
X21981016Y-19240728D01*
X22051959Y-19247677D01*
X22141593Y-19238556D01*
X22238916Y-19209713D01*
X22346058Y-19157918D01*
X22346058Y-19333224D01*
G37*
G36*
X22641256Y-19382500D02*
G01*
X22641256Y-17723602D01*
X22837902Y-17723602D01*
X22837902Y-18473641D01*
X22894263Y-18395419D01*
X22958623Y-18329160D01*
X23031433Y-18273881D01*
X23111628Y-18230880D01*
X23188880Y-18206364D01*
X23264624Y-18198410D01*
X23328647Y-18204079D01*
X23388107Y-18220797D01*
X23444051Y-18248694D01*
X23494324Y-18285931D01*
X23531511Y-18326422D01*
X23557441Y-18370510D01*
X23579004Y-18426754D01*
X23592429Y-18486647D01*
X23598764Y-18564046D01*
X23601771Y-18739164D01*
X23601771Y-19382500D01*
X23405217Y-19382500D01*
X23405217Y-18715808D01*
X23400133Y-18564928D01*
X23389463Y-18498829D01*
X23367200Y-18451251D01*
X23332035Y-18413374D01*
X23287931Y-18388271D01*
X23240994Y-18380127D01*
X23177652Y-18389325D01*
X23107184Y-18419201D01*
X23026854Y-18475107D01*
X22955585Y-18542848D01*
X22892672Y-18621594D01*
X22837902Y-18712419D01*
X22837902Y-19382500D01*
X22641256Y-19382500D01*
G37*
G36*
X24520871Y-18207999D02*
G01*
X24607523Y-18235555D01*
X24683502Y-18280573D01*
X24750598Y-18344315D01*
X24801105Y-18419515D01*
X24839970Y-18516013D01*
X24865584Y-18638720D01*
X24874978Y-18793569D01*
X24874978Y-18837349D01*
X24085372Y-18837349D01*
X24090974Y-18913402D01*
X24107460Y-18984439D01*
X24134739Y-19051398D01*
X24172237Y-19112963D01*
X24215396Y-19161493D01*
X24264432Y-19198676D01*
X24319783Y-19225640D01*
X24380407Y-19242043D01*
X24447523Y-19247677D01*
X24536031Y-19240781D01*
X24632978Y-19219024D01*
X24739952Y-19180323D01*
X24858584Y-19122015D01*
X24858584Y-19303182D01*
X24701716Y-19365401D01*
X24557241Y-19400579D01*
X24422885Y-19411809D01*
X24321394Y-19402978D01*
X24229230Y-19377190D01*
X24144540Y-19334597D01*
X24069221Y-19276760D01*
X24003886Y-19203883D01*
X23948077Y-19114046D01*
X23907174Y-19016221D01*
X23882690Y-18914337D01*
X23874438Y-18807124D01*
X23882190Y-18703915D01*
X23885222Y-18690804D01*
X24097370Y-18690804D01*
X24661938Y-18690804D01*
X24661938Y-18666074D01*
X24653600Y-18575508D01*
X24630463Y-18502974D01*
X24593977Y-18444699D01*
X24543867Y-18399190D01*
X24484413Y-18372008D01*
X24412627Y-18362541D01*
X24339599Y-18371853D01*
X24274130Y-18399362D01*
X24214057Y-18446347D01*
X24166210Y-18506933D01*
X24126943Y-18586925D01*
X24097370Y-18690804D01*
X23885222Y-18690804D01*
X23905400Y-18603550D01*
X23944505Y-18504965D01*
X23998295Y-18414202D01*
X24063361Y-18339532D01*
X24140327Y-18279193D01*
X24227191Y-18234409D01*
X24320118Y-18207540D01*
X24420870Y-18198410D01*
X24520871Y-18207999D01*
G37*
G36*
X25256364Y-19382500D02*
G01*
X25256364Y-18227719D01*
X25452918Y-18227719D01*
X25452918Y-18473641D01*
X25514278Y-18389464D01*
X25580900Y-18321940D01*
X25653045Y-18269210D01*
X25732926Y-18230030D01*
X25818540Y-18206440D01*
X25911423Y-18198410D01*
X26015173Y-18205813D01*
X26121533Y-18228452D01*
X26121533Y-18649771D01*
X25932123Y-18649771D01*
X25932123Y-18387912D01*
X25859125Y-18380127D01*
X25791462Y-18388806D01*
X25722868Y-18415731D01*
X25651579Y-18463750D01*
X25588650Y-18523857D01*
X25522530Y-18605920D01*
X25452918Y-18714343D01*
X25452918Y-19382500D01*
X25256364Y-19382500D01*
G37*
G36*
X28546864Y-17788082D02*
G01*
X28751937Y-17788082D01*
X28260001Y-19382500D01*
X28045403Y-19382500D01*
X27550445Y-17788082D01*
X27775026Y-17788082D01*
X28121241Y-18900273D01*
X28163281Y-19054787D01*
X28200650Y-18900730D01*
X28546864Y-17788082D01*
G37*
G36*
X29358911Y-19218368D02*
G01*
X29358911Y-17997093D01*
X29276418Y-18059702D01*
X29196153Y-18112315D01*
X29105970Y-18159086D01*
X28969282Y-18214072D01*
X28969282Y-18035836D01*
X29115263Y-17964557D01*
X29245282Y-17881970D01*
X29360743Y-17788082D01*
X29555465Y-17788082D01*
X29555465Y-19218368D01*
X29937950Y-19218368D01*
X29937950Y-19382500D01*
X28969282Y-19382500D01*
X28969282Y-19218368D01*
X29358911Y-19218368D01*
G37*
G36*
X30667839Y-19429394D02*
G01*
X30623299Y-19423798D01*
X30583753Y-19407344D01*
X30547854Y-19379385D01*
X30519841Y-19343481D01*
X30503359Y-19303935D01*
X30497754Y-19259401D01*
X30503441Y-19214250D01*
X30520098Y-19174578D01*
X30548312Y-19138959D01*
X30584499Y-19111202D01*
X30623916Y-19094922D01*
X30667839Y-19089408D01*
X30711759Y-19094924D01*
X30751144Y-19111205D01*
X30787274Y-19138959D01*
X30815543Y-19174584D01*
X30832228Y-19214256D01*
X30837923Y-19259401D01*
X30832319Y-19303935D01*
X30815837Y-19343481D01*
X30787823Y-19379385D01*
X30751925Y-19407344D01*
X30712379Y-19423798D01*
X30667839Y-19429394D01*
G37*
G36*
X32033153Y-17744942D02*
G01*
X32125813Y-17772563D01*
X32207296Y-17817527D01*
X32279464Y-17880775D01*
X32343223Y-17964761D01*
X32402322Y-18080621D01*
X32447144Y-18219269D01*
X32476030Y-18384771D01*
X32486379Y-18581810D01*
X32476020Y-18779459D01*
X32447117Y-18945334D01*
X32402293Y-19084162D01*
X32343223Y-19200050D01*
X32279469Y-19283998D01*
X32207304Y-19347220D01*
X32125821Y-19392169D01*
X32033158Y-19419780D01*
X31926666Y-19429394D01*
X31820630Y-19419801D01*
X31728212Y-19392228D01*
X31646796Y-19347304D01*
X31574545Y-19284067D01*
X31510568Y-19200050D01*
X31468746Y-19118259D01*
X31692193Y-19118259D01*
X31739928Y-19183667D01*
X31791844Y-19228169D01*
X31851670Y-19255920D01*
X31918515Y-19265263D01*
X31990502Y-19256749D01*
X32052094Y-19232163D01*
X32105744Y-19191205D01*
X32152697Y-19131340D01*
X32192830Y-19048101D01*
X32237399Y-18901228D01*
X32264939Y-18740960D01*
X32274438Y-18565416D01*
X32264177Y-18404472D01*
X32234229Y-18256113D01*
X31692193Y-19118259D01*
X31468746Y-19118259D01*
X31451297Y-19084134D01*
X31406332Y-18945296D01*
X31377343Y-18779431D01*
X31366953Y-18581810D01*
X31367542Y-18570636D01*
X31579903Y-18570636D01*
X31584024Y-18714343D01*
X31593347Y-18796650D01*
X31617272Y-18915751D01*
X32163246Y-18058642D01*
X32125267Y-17999382D01*
X32088228Y-17958632D01*
X32051871Y-17932521D01*
X31989998Y-17907608D01*
X31926666Y-17899457D01*
X31863305Y-17906747D01*
X31807206Y-17928056D01*
X31756566Y-17963854D01*
X31710383Y-18016286D01*
X31668563Y-18088959D01*
X31631852Y-18183495D01*
X31604039Y-18293694D01*
X31586228Y-18421882D01*
X31579903Y-18570636D01*
X31367542Y-18570636D01*
X31377333Y-18384799D01*
X31406305Y-18219307D01*
X31451268Y-18080649D01*
X31510568Y-17964761D01*
X31574550Y-17880706D01*
X31646803Y-17817444D01*
X31728220Y-17772504D01*
X31820636Y-17744922D01*
X31926666Y-17735326D01*
X32033153Y-17744942D01*
G37*
D11*
X31130295Y-55710839D02*
X26130295Y-55710839D01*
X26130295Y-55710839D02*
X29701723Y-54044173D01*
X29701723Y-54044173D02*
X26130295Y-52377506D01*
X26130295Y-52377506D02*
X31130295Y-52377506D01*
X31130295Y-49996553D02*
X27796961Y-49996553D01*
X26130295Y-49996553D02*
X26368390Y-50234649D01*
X26368390Y-50234649D02*
X26606485Y-49996553D01*
X26606485Y-49996553D02*
X26368390Y-49758458D01*
X26368390Y-49758458D02*
X26130295Y-49996553D01*
X26130295Y-49996553D02*
X26606485Y-49996553D01*
X31130295Y-47615601D02*
X27796961Y-47615601D01*
X28273152Y-47615601D02*
X28035057Y-47377506D01*
X28035057Y-47377506D02*
X27796961Y-46901316D01*
X27796961Y-46901316D02*
X27796961Y-46187030D01*
X27796961Y-46187030D02*
X28035057Y-45710839D01*
X28035057Y-45710839D02*
X28511247Y-45472744D01*
X28511247Y-45472744D02*
X31130295Y-45472744D01*
X28511247Y-45472744D02*
X28035057Y-45234649D01*
X28035057Y-45234649D02*
X27796961Y-44758458D01*
X27796961Y-44758458D02*
X27796961Y-44044173D01*
X27796961Y-44044173D02*
X28035057Y-43567982D01*
X28035057Y-43567982D02*
X28511247Y-43329887D01*
X28511247Y-43329887D02*
X31130295Y-43329887D01*
X31130295Y-40234649D02*
X30892200Y-40710839D01*
X30892200Y-40710839D02*
X30654104Y-40948934D01*
X30654104Y-40948934D02*
X30177914Y-41187030D01*
X30177914Y-41187030D02*
X28749342Y-41187030D01*
X28749342Y-41187030D02*
X28273152Y-40948934D01*
X28273152Y-40948934D02*
X28035057Y-40710839D01*
X28035057Y-40710839D02*
X27796961Y-40234649D01*
X27796961Y-40234649D02*
X27796961Y-39520363D01*
X27796961Y-39520363D02*
X28035057Y-39044172D01*
X28035057Y-39044172D02*
X28273152Y-38806077D01*
X28273152Y-38806077D02*
X28749342Y-38567982D01*
X28749342Y-38567982D02*
X30177914Y-38567982D01*
X30177914Y-38567982D02*
X30654104Y-38806077D01*
X30654104Y-38806077D02*
X30892200Y-39044172D01*
X30892200Y-39044172D02*
X31130295Y-39520363D01*
X31130295Y-39520363D02*
X31130295Y-40234649D01*
X28511247Y-34758458D02*
X28511247Y-36425124D01*
X31130295Y-36425124D02*
X26130295Y-36425124D01*
X26130295Y-36425124D02*
X26130295Y-34044172D01*
X31130295Y-32139410D02*
X26130295Y-32139410D01*
X26130295Y-32139410D02*
X26130295Y-30234648D01*
X26130295Y-30234648D02*
X26368390Y-29758458D01*
X26368390Y-29758458D02*
X26606485Y-29520363D01*
X26606485Y-29520363D02*
X27082676Y-29282267D01*
X27082676Y-29282267D02*
X27796961Y-29282267D01*
X27796961Y-29282267D02*
X28273152Y-29520363D01*
X28273152Y-29520363D02*
X28511247Y-29758458D01*
X28511247Y-29758458D02*
X28749342Y-30234648D01*
X28749342Y-30234648D02*
X28749342Y-32139410D01*
X30892200Y-27377506D02*
X31130295Y-26663220D01*
X31130295Y-26663220D02*
X31130295Y-25472744D01*
X31130295Y-25472744D02*
X30892200Y-24996553D01*
X30892200Y-24996553D02*
X30654104Y-24758458D01*
X30654104Y-24758458D02*
X30177914Y-24520363D01*
X30177914Y-24520363D02*
X29701723Y-24520363D01*
X29701723Y-24520363D02*
X29225533Y-24758458D01*
X29225533Y-24758458D02*
X28987438Y-24996553D01*
X28987438Y-24996553D02*
X28749342Y-25472744D01*
X28749342Y-25472744D02*
X28511247Y-26425125D01*
X28511247Y-26425125D02*
X28273152Y-26901315D01*
X28273152Y-26901315D02*
X28035057Y-27139410D01*
X28035057Y-27139410D02*
X27558866Y-27377506D01*
X27558866Y-27377506D02*
X27082676Y-27377506D01*
X27082676Y-27377506D02*
X26606485Y-27139410D01*
X26606485Y-27139410D02*
X26368390Y-26901315D01*
X26368390Y-26901315D02*
X26130295Y-26425125D01*
X26130295Y-26425125D02*
X26130295Y-25234648D01*
X26130295Y-25234648D02*
X26368390Y-24520363D01*
D12*
X24749095Y-55816102D02*
X19749095Y-55816102D01*
X19749095Y-55816102D02*
X23320523Y-54149436D01*
X23320523Y-54149436D02*
X19749095Y-52482769D01*
X19749095Y-52482769D02*
X24749095Y-52482769D01*
X24749095Y-50101816D02*
X21415761Y-50101816D01*
X19749095Y-50101816D02*
X19987190Y-50339912D01*
X19987190Y-50339912D02*
X20225285Y-50101816D01*
X20225285Y-50101816D02*
X19987190Y-49863721D01*
X19987190Y-49863721D02*
X19749095Y-50101816D01*
X19749095Y-50101816D02*
X20225285Y-50101816D01*
X24749095Y-47720864D02*
X21415761Y-47720864D01*
X21891952Y-47720864D02*
X21653857Y-47482769D01*
X21653857Y-47482769D02*
X21415761Y-47006579D01*
X21415761Y-47006579D02*
X21415761Y-46292293D01*
X21415761Y-46292293D02*
X21653857Y-45816102D01*
X21653857Y-45816102D02*
X22130047Y-45578007D01*
X22130047Y-45578007D02*
X24749095Y-45578007D01*
X22130047Y-45578007D02*
X21653857Y-45339912D01*
X21653857Y-45339912D02*
X21415761Y-44863721D01*
X21415761Y-44863721D02*
X21415761Y-44149436D01*
X21415761Y-44149436D02*
X21653857Y-43673245D01*
X21653857Y-43673245D02*
X22130047Y-43435150D01*
X22130047Y-43435150D02*
X24749095Y-43435150D01*
X24749095Y-40339912D02*
X24511000Y-40816102D01*
X24511000Y-40816102D02*
X24272904Y-41054197D01*
X24272904Y-41054197D02*
X23796714Y-41292293D01*
X23796714Y-41292293D02*
X22368142Y-41292293D01*
X22368142Y-41292293D02*
X21891952Y-41054197D01*
X21891952Y-41054197D02*
X21653857Y-40816102D01*
X21653857Y-40816102D02*
X21415761Y-40339912D01*
X21415761Y-40339912D02*
X21415761Y-39625626D01*
X21415761Y-39625626D02*
X21653857Y-39149435D01*
X21653857Y-39149435D02*
X21891952Y-38911340D01*
X21891952Y-38911340D02*
X22368142Y-38673245D01*
X22368142Y-38673245D02*
X23796714Y-38673245D01*
X23796714Y-38673245D02*
X24272904Y-38911340D01*
X24272904Y-38911340D02*
X24511000Y-39149435D01*
X24511000Y-39149435D02*
X24749095Y-39625626D01*
X24749095Y-39625626D02*
X24749095Y-40339912D01*
X24272904Y-33673244D02*
X24511000Y-33911340D01*
X24511000Y-33911340D02*
X24749095Y-34625625D01*
X24749095Y-34625625D02*
X24749095Y-35101816D01*
X24749095Y-35101816D02*
X24511000Y-35816102D01*
X24511000Y-35816102D02*
X24034809Y-36292292D01*
X24034809Y-36292292D02*
X23558619Y-36530387D01*
X23558619Y-36530387D02*
X22606238Y-36768483D01*
X22606238Y-36768483D02*
X21891952Y-36768483D01*
X21891952Y-36768483D02*
X20939571Y-36530387D01*
X20939571Y-36530387D02*
X20463380Y-36292292D01*
X20463380Y-36292292D02*
X19987190Y-35816102D01*
X19987190Y-35816102D02*
X19749095Y-35101816D01*
X19749095Y-35101816D02*
X19749095Y-34625625D01*
X19749095Y-34625625D02*
X19987190Y-33911340D01*
X19987190Y-33911340D02*
X20225285Y-33673244D01*
X23320523Y-31768483D02*
X23320523Y-29387530D01*
X24749095Y-32244673D02*
X19749095Y-30578006D01*
X19749095Y-30578006D02*
X24749095Y-28911340D01*
X24749095Y-27244673D02*
X19749095Y-27244673D01*
X19749095Y-27244673D02*
X19749095Y-26054197D01*
X19749095Y-26054197D02*
X19987190Y-25339911D01*
X19987190Y-25339911D02*
X20463380Y-24863721D01*
X20463380Y-24863721D02*
X20939571Y-24625626D01*
X20939571Y-24625626D02*
X21891952Y-24387530D01*
X21891952Y-24387530D02*
X22606238Y-24387530D01*
X22606238Y-24387530D02*
X23558619Y-24625626D01*
X23558619Y-24625626D02*
X24034809Y-24863721D01*
X24034809Y-24863721D02*
X24511000Y-25339911D01*
X24511000Y-25339911D02*
X24749095Y-26054197D01*
X24749095Y-26054197D02*
X24749095Y-27244673D01*
D11*
X24584819Y-56046666D02*
X24108628Y-56379999D01*
X24584819Y-56618094D02*
X23584819Y-56618094D01*
X23584819Y-56618094D02*
X23584819Y-56237142D01*
X23584819Y-56237142D02*
X23632438Y-56141904D01*
X23632438Y-56141904D02*
X23680057Y-56094285D01*
X23680057Y-56094285D02*
X23775295Y-56046666D01*
X23775295Y-56046666D02*
X23918152Y-56046666D01*
X23918152Y-56046666D02*
X24013390Y-56094285D01*
X24013390Y-56094285D02*
X24061009Y-56141904D01*
X24061009Y-56141904D02*
X24108628Y-56237142D01*
X24108628Y-56237142D02*
X24108628Y-56618094D01*
X23680057Y-55665713D02*
X23632438Y-55618094D01*
X23632438Y-55618094D02*
X23584819Y-55522856D01*
X23584819Y-55522856D02*
X23584819Y-55284761D01*
X23584819Y-55284761D02*
X23632438Y-55189523D01*
X23632438Y-55189523D02*
X23680057Y-55141904D01*
X23680057Y-55141904D02*
X23775295Y-55094285D01*
X23775295Y-55094285D02*
X23870533Y-55094285D01*
X23870533Y-55094285D02*
X24013390Y-55141904D01*
X24013390Y-55141904D02*
X24584819Y-55713332D01*
X24584819Y-55713332D02*
X24584819Y-55094285D01*
X27124819Y-56046666D02*
X26648628Y-56379999D01*
X27124819Y-56618094D02*
X26124819Y-56618094D01*
X26124819Y-56618094D02*
X26124819Y-56237142D01*
X26124819Y-56237142D02*
X26172438Y-56141904D01*
X26172438Y-56141904D02*
X26220057Y-56094285D01*
X26220057Y-56094285D02*
X26315295Y-56046666D01*
X26315295Y-56046666D02*
X26458152Y-56046666D01*
X26458152Y-56046666D02*
X26553390Y-56094285D01*
X26553390Y-56094285D02*
X26601009Y-56141904D01*
X26601009Y-56141904D02*
X26648628Y-56237142D01*
X26648628Y-56237142D02*
X26648628Y-56618094D01*
X27124819Y-55094285D02*
X27124819Y-55665713D01*
X27124819Y-55379999D02*
X26124819Y-55379999D01*
X26124819Y-55379999D02*
X26267676Y-55475237D01*
X26267676Y-55475237D02*
X26362914Y-55570475D01*
X26362914Y-55570475D02*
X26410533Y-55665713D01*
X24926666Y-56914819D02*
X24926666Y-57629104D01*
X24926666Y-57629104D02*
X24879047Y-57771961D01*
X24879047Y-57771961D02*
X24783809Y-57867200D01*
X24783809Y-57867200D02*
X24640952Y-57914819D01*
X24640952Y-57914819D02*
X24545714Y-57914819D01*
X25926666Y-57914819D02*
X25355238Y-57914819D01*
X25640952Y-57914819D02*
X25640952Y-56914819D01*
X25640952Y-56914819D02*
X25545714Y-57057676D01*
X25545714Y-57057676D02*
X25450476Y-57152914D01*
X25450476Y-57152914D02*
X25355238Y-57200533D01*
X24700714Y-12679104D02*
X25176904Y-12679104D01*
X24605476Y-12964819D02*
X24938809Y-11964819D01*
X24938809Y-11964819D02*
X25272142Y-12964819D01*
X26129285Y-12964819D02*
X25557857Y-12964819D01*
X25843571Y-12964819D02*
X25843571Y-11964819D01*
X25843571Y-11964819D02*
X25748333Y-12107676D01*
X25748333Y-12107676D02*
X25653095Y-12202914D01*
X25653095Y-12202914D02*
X25557857Y-12250533D01*
D13*
%TO.C,R2*%
X23220000Y-51535436D02*
X23220000Y-52989564D01*
X25040000Y-51535436D02*
X25040000Y-52989564D01*
%TO.C,R1*%
X25760000Y-52989564D02*
X25760000Y-51535436D01*
X27580000Y-52989564D02*
X27580000Y-51535436D01*
%TO.C,J1*%
X20750000Y-59550000D02*
X22200000Y-59550000D01*
X20750000Y-61300000D02*
X20750000Y-59550000D01*
X20750000Y-63520000D02*
X20750000Y-64070000D01*
X20750000Y-64070000D02*
X29770000Y-64070000D01*
X22200000Y-59550000D02*
X22200000Y-58660000D01*
X29770000Y-59550000D02*
X28320000Y-59550000D01*
X29770000Y-61300000D02*
X29770000Y-59550000D01*
X29770000Y-64070000D02*
X29770000Y-63520000D01*
%TO.C,A1*%
X13555000Y-21130000D02*
X13555000Y-19130000D01*
X13875000Y-16320000D02*
X13875000Y-62040000D01*
X34305000Y-13670000D02*
X16525000Y-13670000D01*
X34305000Y-64690000D02*
X16525000Y-64690000D01*
X36955000Y-16320000D02*
X36955000Y-62040000D01*
X13875000Y-16320000D02*
G75*
G02*
X16525000Y-13670000I2650000J0D01*
G01*
X16525000Y-64690000D02*
G75*
G02*
X13875000Y-62040000I0J2650000D01*
G01*
X34305000Y-13670000D02*
G75*
G02*
X36955000Y-16320000I0J-2650000D01*
G01*
X36955000Y-62040000D02*
G75*
G02*
X34305000Y-64690000I-2650000J0D01*
G01*
%TD*%
M02*
