%TF.GenerationSoftware,KiCad,Pcbnew,9.0.0*%
%TF.CreationDate,2025-05-18T10:55:16-04:00*%
%TF.ProjectId,R503toFeather,52353033-746f-4466-9561-746865722e6b,rev?*%
%TF.SameCoordinates,Original*%
%TF.FileFunction,Legend,Bot*%
%TF.FilePolarity,Positive*%
%FSLAX46Y46*%
G04 Gerber Fmt 4.6, Leading zero omitted, Abs format (unit mm)*
G04 Created by KiCad (PCBNEW 9.0.0) date 2025-05-18 10:55:16*
%MOMM*%
%LPD*%
G01*
G04 APERTURE LIST*
%ADD10C,0.150000*%
%ADD11C,0.750000*%
G04 APERTURE END LIST*
D10*
X31130295Y-24149160D02*
X26130295Y-24149160D01*
X26130295Y-24149160D02*
X29701723Y-25815826D01*
X29701723Y-25815826D02*
X26130295Y-27482493D01*
X26130295Y-27482493D02*
X31130295Y-27482493D01*
X31130295Y-29863446D02*
X27796961Y-29863446D01*
X26130295Y-29863446D02*
X26368390Y-29625350D01*
X26368390Y-29625350D02*
X26606485Y-29863446D01*
X26606485Y-29863446D02*
X26368390Y-30101541D01*
X26368390Y-30101541D02*
X26130295Y-29863446D01*
X26130295Y-29863446D02*
X26606485Y-29863446D01*
X31130295Y-32244398D02*
X27796961Y-32244398D01*
X28273152Y-32244398D02*
X28035057Y-32482493D01*
X28035057Y-32482493D02*
X27796961Y-32958683D01*
X27796961Y-32958683D02*
X27796961Y-33672969D01*
X27796961Y-33672969D02*
X28035057Y-34149160D01*
X28035057Y-34149160D02*
X28511247Y-34387255D01*
X28511247Y-34387255D02*
X31130295Y-34387255D01*
X28511247Y-34387255D02*
X28035057Y-34625350D01*
X28035057Y-34625350D02*
X27796961Y-35101541D01*
X27796961Y-35101541D02*
X27796961Y-35815826D01*
X27796961Y-35815826D02*
X28035057Y-36292017D01*
X28035057Y-36292017D02*
X28511247Y-36530112D01*
X28511247Y-36530112D02*
X31130295Y-36530112D01*
X31130295Y-39625350D02*
X30892200Y-39149160D01*
X30892200Y-39149160D02*
X30654104Y-38911065D01*
X30654104Y-38911065D02*
X30177914Y-38672969D01*
X30177914Y-38672969D02*
X28749342Y-38672969D01*
X28749342Y-38672969D02*
X28273152Y-38911065D01*
X28273152Y-38911065D02*
X28035057Y-39149160D01*
X28035057Y-39149160D02*
X27796961Y-39625350D01*
X27796961Y-39625350D02*
X27796961Y-40339636D01*
X27796961Y-40339636D02*
X28035057Y-40815827D01*
X28035057Y-40815827D02*
X28273152Y-41053922D01*
X28273152Y-41053922D02*
X28749342Y-41292017D01*
X28749342Y-41292017D02*
X30177914Y-41292017D01*
X30177914Y-41292017D02*
X30654104Y-41053922D01*
X30654104Y-41053922D02*
X30892200Y-40815827D01*
X30892200Y-40815827D02*
X31130295Y-40339636D01*
X31130295Y-40339636D02*
X31130295Y-39625350D01*
X28511247Y-45101541D02*
X28511247Y-43434875D01*
X31130295Y-43434875D02*
X26130295Y-43434875D01*
X26130295Y-43434875D02*
X26130295Y-45815827D01*
X31130295Y-47720589D02*
X26130295Y-47720589D01*
X26130295Y-47720589D02*
X26130295Y-49625351D01*
X26130295Y-49625351D02*
X26368390Y-50101541D01*
X26368390Y-50101541D02*
X26606485Y-50339636D01*
X26606485Y-50339636D02*
X27082676Y-50577732D01*
X27082676Y-50577732D02*
X27796961Y-50577732D01*
X27796961Y-50577732D02*
X28273152Y-50339636D01*
X28273152Y-50339636D02*
X28511247Y-50101541D01*
X28511247Y-50101541D02*
X28749342Y-49625351D01*
X28749342Y-49625351D02*
X28749342Y-47720589D01*
X30892200Y-52482493D02*
X31130295Y-53196779D01*
X31130295Y-53196779D02*
X31130295Y-54387255D01*
X31130295Y-54387255D02*
X30892200Y-54863446D01*
X30892200Y-54863446D02*
X30654104Y-55101541D01*
X30654104Y-55101541D02*
X30177914Y-55339636D01*
X30177914Y-55339636D02*
X29701723Y-55339636D01*
X29701723Y-55339636D02*
X29225533Y-55101541D01*
X29225533Y-55101541D02*
X28987438Y-54863446D01*
X28987438Y-54863446D02*
X28749342Y-54387255D01*
X28749342Y-54387255D02*
X28511247Y-53434874D01*
X28511247Y-53434874D02*
X28273152Y-52958684D01*
X28273152Y-52958684D02*
X28035057Y-52720589D01*
X28035057Y-52720589D02*
X27558866Y-52482493D01*
X27558866Y-52482493D02*
X27082676Y-52482493D01*
X27082676Y-52482493D02*
X26606485Y-52720589D01*
X26606485Y-52720589D02*
X26368390Y-52958684D01*
X26368390Y-52958684D02*
X26130295Y-53434874D01*
X26130295Y-53434874D02*
X26130295Y-54625351D01*
X26130295Y-54625351D02*
X26368390Y-55339636D01*
D11*
X24749095Y-24543897D02*
X19749095Y-24543897D01*
X19749095Y-24543897D02*
X23320523Y-26210563D01*
X23320523Y-26210563D02*
X19749095Y-27877230D01*
X19749095Y-27877230D02*
X24749095Y-27877230D01*
X24749095Y-30258183D02*
X21415761Y-30258183D01*
X19749095Y-30258183D02*
X19987190Y-30020087D01*
X19987190Y-30020087D02*
X20225285Y-30258183D01*
X20225285Y-30258183D02*
X19987190Y-30496278D01*
X19987190Y-30496278D02*
X19749095Y-30258183D01*
X19749095Y-30258183D02*
X20225285Y-30258183D01*
X24749095Y-32639135D02*
X21415761Y-32639135D01*
X21891952Y-32639135D02*
X21653857Y-32877230D01*
X21653857Y-32877230D02*
X21415761Y-33353420D01*
X21415761Y-33353420D02*
X21415761Y-34067706D01*
X21415761Y-34067706D02*
X21653857Y-34543897D01*
X21653857Y-34543897D02*
X22130047Y-34781992D01*
X22130047Y-34781992D02*
X24749095Y-34781992D01*
X22130047Y-34781992D02*
X21653857Y-35020087D01*
X21653857Y-35020087D02*
X21415761Y-35496278D01*
X21415761Y-35496278D02*
X21415761Y-36210563D01*
X21415761Y-36210563D02*
X21653857Y-36686754D01*
X21653857Y-36686754D02*
X22130047Y-36924849D01*
X22130047Y-36924849D02*
X24749095Y-36924849D01*
X24749095Y-40020087D02*
X24511000Y-39543897D01*
X24511000Y-39543897D02*
X24272904Y-39305802D01*
X24272904Y-39305802D02*
X23796714Y-39067706D01*
X23796714Y-39067706D02*
X22368142Y-39067706D01*
X22368142Y-39067706D02*
X21891952Y-39305802D01*
X21891952Y-39305802D02*
X21653857Y-39543897D01*
X21653857Y-39543897D02*
X21415761Y-40020087D01*
X21415761Y-40020087D02*
X21415761Y-40734373D01*
X21415761Y-40734373D02*
X21653857Y-41210564D01*
X21653857Y-41210564D02*
X21891952Y-41448659D01*
X21891952Y-41448659D02*
X22368142Y-41686754D01*
X22368142Y-41686754D02*
X23796714Y-41686754D01*
X23796714Y-41686754D02*
X24272904Y-41448659D01*
X24272904Y-41448659D02*
X24511000Y-41210564D01*
X24511000Y-41210564D02*
X24749095Y-40734373D01*
X24749095Y-40734373D02*
X24749095Y-40020087D01*
X24272904Y-46686755D02*
X24511000Y-46448659D01*
X24511000Y-46448659D02*
X24749095Y-45734374D01*
X24749095Y-45734374D02*
X24749095Y-45258183D01*
X24749095Y-45258183D02*
X24511000Y-44543897D01*
X24511000Y-44543897D02*
X24034809Y-44067707D01*
X24034809Y-44067707D02*
X23558619Y-43829612D01*
X23558619Y-43829612D02*
X22606238Y-43591516D01*
X22606238Y-43591516D02*
X21891952Y-43591516D01*
X21891952Y-43591516D02*
X20939571Y-43829612D01*
X20939571Y-43829612D02*
X20463380Y-44067707D01*
X20463380Y-44067707D02*
X19987190Y-44543897D01*
X19987190Y-44543897D02*
X19749095Y-45258183D01*
X19749095Y-45258183D02*
X19749095Y-45734374D01*
X19749095Y-45734374D02*
X19987190Y-46448659D01*
X19987190Y-46448659D02*
X20225285Y-46686755D01*
X23320523Y-48591516D02*
X23320523Y-50972469D01*
X24749095Y-48115326D02*
X19749095Y-49781993D01*
X19749095Y-49781993D02*
X24749095Y-51448659D01*
X24749095Y-53115326D02*
X19749095Y-53115326D01*
X19749095Y-53115326D02*
X19749095Y-54305802D01*
X19749095Y-54305802D02*
X19987190Y-55020088D01*
X19987190Y-55020088D02*
X20463380Y-55496278D01*
X20463380Y-55496278D02*
X20939571Y-55734373D01*
X20939571Y-55734373D02*
X21891952Y-55972469D01*
X21891952Y-55972469D02*
X22606238Y-55972469D01*
X22606238Y-55972469D02*
X23558619Y-55734373D01*
X23558619Y-55734373D02*
X24034809Y-55496278D01*
X24034809Y-55496278D02*
X24511000Y-55020088D01*
X24511000Y-55020088D02*
X24749095Y-54305802D01*
X24749095Y-54305802D02*
X24749095Y-53115326D01*
M02*
